<svg width="18" height="18" viewBox="0 0 18 18" fill="none" xmlns="http://www.w3.org/2000/svg">
<path d="M11.9229 5.104C11.4138 3.91217 10.5088 2.93269 9.36091 2.33114C8.21298 1.72959 6.89255 1.54288 5.62284 1.80257C4.35313 2.06227 3.21205 2.75244 2.3925 3.7564C1.57296 4.76036 1.12522 6.01652 1.125 7.31251V11.8125C1.125 12.1109 1.24353 12.397 1.4545 12.608C1.66548 12.819 1.95163 12.9375 2.25 12.9375H6.09398C6.53293 13.9399 7.25423 14.7929 8.16983 15.3922C9.08542 15.9915 10.1557 16.3113 11.25 16.3125H15.75C16.0484 16.3125 16.3345 16.194 16.5455 15.983C16.7565 15.772 16.875 15.4859 16.875 15.1875V10.6875C16.8747 9.31239 16.3707 7.98499 15.4583 6.9562C14.5458 5.92741 13.2881 5.2685 11.9229 5.104ZM15.75 15.1875H11.25C10.4543 15.1866 9.67297 14.9752 8.98538 14.5747C8.29779 14.1742 7.72839 13.599 7.335 12.9073C8.10543 12.8273 8.85101 12.589 9.52495 12.2072C10.1989 11.8255 10.7867 11.3085 11.2513 10.6888C11.716 10.0691 12.0476 9.36005 12.2252 8.60613C12.4028 7.85221 12.4227 7.06971 12.2836 6.30775C13.2703 6.5406 14.1494 7.0998 14.7786 7.89473C15.4077 8.68965 15.75 9.67374 15.75 10.6875V15.1875Z" fill="url(#paint0_linear_334_239)"/>
<defs>
<linearGradient id="paint0_linear_334_239" x1="9" y1="1.68848" x2="9" y2="16.3125" gradientUnits="userSpaceOnUse">
<stop stop-color="#B9B9B9"/>
<stop offset="1" stop-color="#959595"/>
</linearGradient>
</defs>
</svg>
